<mxfile host="app.diagrams.net" modified="2024-03-13T10:52:02.325Z" agent="Mozilla/5.0 (Macintosh; Intel Mac OS X 10_15_7) AppleWebKit/537.36 (KHTML, like Gecko) Chrome/122.0.0.0 Safari/537.36" version="23.1.7" etag="xT3_6l7ZxVJhVa766r3O" type="github">
  <diagram name="Page-1" id="Xys8G413r45YZBC3T7wg">
    <mxGraphModel>
      <root>
        <mxCell id="0" />
        <mxCell id="1" parent="0" />
      </root>
    </mxGraphModel>
  </diagram>
</mxfile>
